<?xml version="1.0" encoding="UTF-8"?><svg id="Layer_2" xmlns="http://www.w3.org/2000/svg" viewBox="0 0 258.82 257.51"><defs><style>.cls-1{fill:none;stroke:#999;stroke-miterlimit:10;}.cls-2{fill:#fff;}.cls-3{opacity:.5;}.cls-4{fill:#f2f2f2;}</style></defs><g id="bunny_icon"><g><path d="M234.17,165.07c-5.07,0-9.78,1.53-13.69,4.15-8.36-21.3-27.7-37.12-51.02-40.46-3.02-.43-6.1-.66-9.24-.66h-9.26c-.32-13.91-7.15-27-19.09-36.96,10.6-22.49,16.97-36.31,18.95-41.13,6.54-15.93-1.09-34.21-17.02-40.76-3.87-1.59-7.88-2.34-11.82-2.34-12.3,0-23.98,7.31-28.93,19.37-2.18,5.3-10.29,27.59-17.48,47.5-16.75,.82-32.44,6.17-44.57,15.27-11.17,8.38-18.34,19.11-20.79,30.88-.31-.03-.63-.05-.95-.05-5.11,0-9.24,4.14-9.24,9.24s4.14,9.24,9.24,9.24c.32,0,.64-.02,.95-.05,2.46,11.77,9.62,22.5,20.79,30.88,9.64,7.23,21.53,12.08,34.4,14.19-.45,3.07-.69,6.22-.69,9.42s.23,6.25,.67,9.28c.3,2.08,.7,4.12,1.19,6.13h-1.86c-13.59,0-24.65,11.06-24.65,24.65s11.06,24.65,24.65,24.65h114.47c24.96,0,45.3-20.09,45.73-44.94,2.86,1.16,5.99,1.81,9.26,1.81,13.61,0,24.65-11.04,24.65-24.65s-11.04-24.65-24.65-24.65Zm-169.47-31.84c-5.11,0-9.24-4.14-9.24-9.24s4.14-9.24,9.24-9.24,9.24,4.14,9.24,9.24c0,5.11-4.14,9.24-9.24,9.24Z"/><path class="cls-4" d="M234.17,165.07c-5.07,0-9.78,1.53-13.69,4.15-8.36-21.3-27.7-37.12-51.02-40.46-3.02-.43-6.1-.66-9.24-.66h-9.26c-.32-13.91-7.15-27-19.09-36.96,10.6-22.49,16.97-36.31,18.95-41.13,6.54-15.93-1.09-34.21-17.02-40.76-3.87-1.59-7.88-2.34-11.82-2.34-12.3,0-23.98,7.31-28.93,19.37-2.18,5.3-10.29,27.59-17.48,47.5-16.75,.82-32.44,6.17-44.57,15.27-11.17,8.38-18.34,19.11-20.79,30.88-.31-.03-.63-.05-.95-.05-5.11,0-9.24,4.14-9.24,9.24s4.14,9.24,9.24,9.24c.32,0,.64-.02,.95-.05,2.46,11.77,9.62,22.5,20.79,30.88,9.64,7.23,21.53,12.08,34.4,14.19-.45,3.07-.69,6.22-.69,9.42s.23,6.25,.67,9.28c.3,2.08,.7,4.12,1.19,6.13h-1.86c-13.59,0-24.65,11.06-24.65,24.65s11.06,24.65,24.65,24.65h114.47c24.96,0,45.3-20.09,45.73-44.94,2.86,1.16,5.99,1.81,9.26,1.81,13.61,0,24.65-11.04,24.65-24.65s-11.04-24.65-24.65-24.65Zm-169.47-31.84c-5.11,0-9.24-4.14-9.24-9.24s4.14-9.24,9.24-9.24,9.24,4.14,9.24,9.24c0,5.11-4.14,9.24-9.24,9.24Z"/><path class="cls-1" d="M234.17,165.07c-5.07,0-9.78,1.53-13.69,4.15-8.36-21.3-27.7-37.12-51.02-40.46-3.02-.43-6.1-.66-9.24-.66h-9.26c-.32-13.91-7.15-27-19.09-36.96,10.6-22.49,16.97-36.31,18.95-41.13,6.54-15.93-1.09-34.21-17.02-40.76-3.87-1.59-7.88-2.34-11.82-2.34-12.3,0-23.98,7.31-28.93,19.37-2.18,5.3-10.29,27.59-17.48,47.5-16.75,.82-32.44,6.17-44.57,15.27-11.17,8.38-18.34,19.11-20.79,30.88-.31-.03-.63-.05-.95-.05-5.11,0-9.24,4.14-9.24,9.24s4.14,9.24,9.24,9.24c.32,0,.64-.02,.95-.05,2.46,11.77,9.62,22.5,20.79,30.88,9.64,7.23,21.53,12.08,34.4,14.19-.45,3.07-.69,6.22-.69,9.42s.23,6.25,.67,9.28c.3,2.08,.7,4.12,1.19,6.13h-1.86c-13.59,0-24.65,11.06-24.65,24.65s11.06,24.65,24.65,24.65h114.47c24.96,0,45.3-20.09,45.73-44.94,2.86,1.16,5.99,1.81,9.26,1.81,13.61,0,24.65-11.04,24.65-24.65s-11.04-24.65-24.65-24.65Zm-169.47-31.84c-5.11,0-9.24-4.14-9.24-9.24s4.14-9.24,9.24-9.24,9.24,4.14,9.24,9.24c0,5.11-4.14,9.24-9.24,9.24Z"/></g><g class="cls-3"><path d="M84.07,.14c-8.31-.77-16.42,1.73-22.84,7.05-6.42,5.32-10.39,12.83-11.16,21.14-.38,4.05-1.12,17.14-1.88,31.66,4.51-1.41,9.16-2.53,13.91-3.32,11.4-31.46,13.21-35.87,13.85-37.42,2.9-7.06,7.33-13.28,12.97-18.27-1.58-.4-3.19-.69-4.84-.84Z"/><path class="cls-2" d="M84.07,.14c-8.31-.77-16.42,1.73-22.84,7.05-6.42,5.32-10.39,12.83-11.16,21.14-.38,4.05-1.12,17.14-1.88,31.66,4.51-1.41,9.16-2.53,13.91-3.32,11.4-31.46,13.21-35.87,13.85-37.42,2.9-7.06,7.33-13.28,12.97-18.27-1.58-.4-3.19-.69-4.84-.84Z"/></g></g></svg>